<?xml version="1.0" encoding="UTF-8"?>
<!-- Created with Inkscape (http://www.inkscape.org/) -->
<svg width="606" height="821" version="1.1" viewBox="0 0 606 821" xmlns="http://www.w3.org/2000/svg" xmlns:cc="http://creativecommons.org/ns#" xmlns:dc="http://purl.org/dc/elements/1.1/" xmlns:rdf="http://www.w3.org/1999/02/22-rdf-syntax-ns#"><metadata><rdf:RDF><cc:Work rdf:about=""><dc:format>image/svg+xml</dc:format><dc:type rdf:resource="http://purl.org/dc/dcmitype/StillImage"/><dc:title/></cc:Work></rdf:RDF></metadata><g transform="translate(1.7822e-8 1.0161)"><path d="m0 410.5v-410.5h606v821h-606z" fill=""/><path d="m165.75 790.04-4.75-5.8474v-2.1128l15.5-11.396 22-19.526 54.599-55.035 18.401-14.974 10.791-8.6481 2.6811-4.0908-38.472-39.808-177-176.41-33-27.345-18.5-18.159v-13.18l135.45-135.46-74.302-74.541-.67472-3.6851-.67472-3.6851.70048-1.1334.70048-1.1334 15.297-12.196 18-8.5385 19.51-7.0452 227.49-113.71 43.247-22.371h22.42l-.33334.92624-.33333.92624-48 48.733-21.651 19.416-15.338 11.499-30.511 29.776v1.9693l13.5 12.886 137.79 137.37 23.541 27 26.331 26 31.231 34 33.604 33.717v11.213l-61.663 62.07-24.131 30-36.372 36-5.9968 8.598 2.6221 3.402 15.101 17 10.91 13 32.324 36 13.158 14 .0239 1.301.0239 1.301-7.5 6.9632-10.042 6.7376-28.383 14.197h-1.159l-12.417 5.8152-12.23 6.9235-11.77 2.0944-18 9.4141-35 17.654-15 6.271-8.0271 2.5903-32.973 15.562-2 1.4385-22 11.111-11 2.0259-16 8.2756-39.224 19.842-11.308 2.0904-14.467 7.5924-41.327 21.3-.67318-.1136z" fill="#836889"/><path d="m165.7 788.98-4.7956-5.9023 15.376-11.371 14.215-12.11 71-70.15 19.415-14.527 4.085-5.1933v-2.4251l-46.669-47.805-166.83-166.35-33-27.402-19.5-19.214v-13.076l69.5-69.423 65.939-65.989-73.721-73.889-.84336-1.3303-.84336-1.3304-.015313-3.165-.015313-3.165 9.5-8.3991 10-6.3546 11-5.233 13-4.989 7.8008-2.4487 241.2-120.76 32-16.44 22-.71894-20 20.54-36.017 36.132-35.983 29.833-25.5 25.095v1.5057l6.7424 6.5667 147.51 147 19.509 23 25.411 25 35.31 38 31.517 31.729v11.126l-62.598 63.145-5.8757 8-20.022 24-31.527 30.846-8.2943 10.751 1.909 2.3804 1.909 2.3804 32 36.495 27 29.866 12.667 13.782-9.6669 9.0614-21 11.61-19 8.7908-22.6 11.429-9.4005 1.3958-56 28.244-8 3.3012-21.183 8.1945-48.917 24.565-11.9 2.6059-54 27.444-14 3.5011-38 19.65-16.313 8.207-.68654-.1136zm46.296-27.731 6.5-2.5297 31-13.953 16-7.57 18-8.4053 19.427-8.7564 19.573-9.217 8-3.6495 10-4.4387 11-4.9098 8-3.6435 11-4.9954 15-6.9208 14-6.4326 8-3.6623 13-5.9737 37-16.961 18-8.4262 11-5.1042 18.631-8.6487-6.8068-7.555-33.825-36.78-12.178-13.22-22.378-26.831.27809-.76092.2781-.76093 10-11.579 18.891-21.068 13.109-14.025 12.012-12.975 46.988-50.039 21.185-22.961 9.313-10-.49768-2.5037-270.5-270.55.025-2.9489 15.615-16 16.86-16.011 16.986-14.989 13.014-11.926 16.646-16.074 6.1902-7.7121-7.836 3.974-20 9.4891-18 8.5354-27 12.969-55 26.997-92 45.45-65.586 32.303 32.586 31.995 41.118 41 1.2775 3.1663 1.2775 3.1663-3.5508 7.6674-130.62 131.11v1.9783l107.5 106.96 71.933 69.95 55.067 53.878 23.176 23.503 11.324 13.841v1.9766l-38.566 36.801-15.153 14-21.781 19.993-23 21.826-1.5 1.4477-1.5 1.4477 5-1.4317zm78.5-130.97-6-5.681-21-20.04-64.989-63.057-25.999-25-26.012-25.013-24-22.946-50-49.301-15.834-16.121 19.606-21.62 50.171-51 51.152-52 52.904-54.964 65.855-66.536h2.2585l18.024 16.5 179.86 178.85 36.081 36.152 5.4992 7.2946.89565 3.123.89564 3.1229-11.711 14.46-31.661 29.847-46 44.085-38 37.031-35.053 34.037-18.947 18.101-34 31.954-24 21.9-2.6429 2.5443-.67857-.0201-.67857-.0202-6-5.681zm19.339-145.03 11.574-10.75 47.087-45.156 29-27.633v-1.5534l-30-31.615-70.807-73.543h-1.3954l-16.57 17.5-49.275 50-29.953 31.651v3.5204l97 98.327 1.7648.00075zm-29.644-39.16-14.695-13.91-14.218-14.68-16.282-18.687v-2.461l22.436-23.852 25.064-24.75 14.5-12.995 1.7501 1.3505 1.7501 1.3505 22 19.315 25.014 25.729 10.467 14 .02 4.1999-5.6983 7.8001-18.643 18.67-21.33 19.33-15.186 13.5h-2.2526l-14.695-13.91z" fill="#522a5a"/><path d="m165.88 788.35-4.3584-5.6493 3.6034-2.2013 10.37-7.7055 11-9.2405 8.8792-8.054 60.225-60 6.8961-5.809 21.549-17.036 1.1719-4.6693-3.5625-5.4854-209.16-209.14-38-31.771-15.5-15.347v-11.997l135-134.62v-2.4234l-70.5-70.494-4.5-6.0926.04322-5.1114 6.4568-5.4997 10.567-7.8998 16.433-7.8797 7.6933-2.4397 5.3067-2.7688 1.6263-.006 1.6263-.00632 255.75-128.2 19.437-9.8752 18.965.57319-17.271 18-21.131 21.725-24.052 22.275-8.9478 7.4777-18.105 14.738-25.395 25.138v2.5743l158.5 158.26 15.396 18.828 30.604 30.109 19 20.661 18.862 20.216 23.639 23.199-.63445 6.0701-.63444 6.0701-58.028 57.661-30.077 36.704-26.789 25.296-11.838 13.898v2.6718l18.33 21.43 1.3405 1 18.756 22 7.2913 8 11.782 13.005 10 10.784 7.3618 7.7296-13.649 11.481-13.713 7-.33333.75-.33334.75h-2.5524l-11.781 5.8435-13 5.8889-4.5 1.4023v1.4634l-6.979 2.5236-2.9689 2.9689-12.552 2.0712-11 5.6692-20 10.118-2.0845 1.5512-10.915 5.3413-11 4.9891-13.777 6.1695h-2.0171l-25.206 11.283-38.129 19.434-9.7525 1.4625-56.577 28.691-9.2718 1.3904-40.27 20.498-15.945 8.2406h-2.312zm44.887-25.767 8.7285-3.4161 33.71-15.282 1.6448-.90958 1.6448-.90957 14-6.2421 12-5.6464 15.5-7.1779 15.5-7.1712 8-3.6718 43-19.401 12-5.6006 20.427-9.1174 19.573-9.217 8-3.6415 12-5.4427 20.689-9.7372h.69493l22.616-10.725 14-6.558 10.5-4.6918-.018-2.5252-14.482-15.964-26.02-28.036-18.292-20-15.18-19-.004-1 32.229-36 21.267-22.983 18.167-19.017 30.833-33.064 21-22.875 8.6948-9.4766-.34739-1.007-.34739-1.007-270-271.34-.55626-2.2579 29.556-29.05 19-17.112 22-20.061 14.5-15.032v-2.1421l-8.7236 3.7394-1.8882 1.0566-1.8878 1.0566-19.5 9.0764-19.5 9.2322-41 20.021-66 32.508-76 37.439-51.466 25.3-.05472 2 73.898 73 .70758 2.9007.70757 2.9007-1.8962 3.5766-1.8962 3.5766-92 92.774-38.5 38.193v2.195l111.52 110.88 70.954 69 60.026 58.954 12.767 13.046 13.733 16.244v2.0156l-15.697 14.74-35.822 34-20.844 19-19.137 18.156-9.5 8.5989v1.7453h2.0431l8.7285-3.4161zm78.728-134.35-7-6.7356-40.608-38.995-20.554-20-54.829-53-26.048-25-24.96-23.898-40-39.25-17.704-18.19 20.684-22.662 62.354-63 4.3159-5 44.349-45.099 49-50.898 58.037-58.502h2.7784l85.185 84.64 139.87 138.86 5.8369 6 7.7918 9.6796v4.9519l-2.2775 4.2556-7.2225 8.0152-9.0764 9.0977-35.776 34-27.146 26-32.923 32-2.3138 2-41.858 41-34.883 33-16.023 15.127-25 23.006-2.896 2.6837-2.896 2.6837-1.208-.0336-7-6.7356zm14-13.906 5-4.6641 33.959-32.161 77.041-73.882 48.918-47.118 56.582-54.992v-2.6783l-213.5-213.04-13.221-10.79h-2.4291l-35.433 35.5-129.03 132-35.07 36-24.262 25 13.443 13.024 42.89 39.976 40.056 39 45.054 44.141 36.998 35.859 21.002 20.23 25.837 23.27 1.1631-.012 5-4.6641zm-36.698-131.07-29.029-28.75-46.415-49-8.2724-8.8982.82222-1.0509.82223-1.0509 9.0403-12 11.53-13 75.199-76.055 15.484-13.675 17.27 14.662 41.247 43.014 38.083 39.055 11.973 14 8.6701 11.478-12.245 13.812-36.393 33.71-19.319 18.264-21.768 21.893-25.634 22.343h-2.036zm41.217 4.75 9.25-8.5 23.231-22.101 45-43.051 13.5-12.645-.0382-1.2027-15.11-16-33.352-34.962-53.745-55.538h-1.405l-30.718 31.5-43.132 44.079-24 25.628v1.5351l98.945 100.32 2.3238-.56088zm-20.147-35.7-7.3717-6.6998-31-31.1-13.391-16-.29032-1.668 18.681-20.12 27.251-27.212 14.482-13 1.2668-.48103 12 10.192 11 10.084 15.938 15.205 20.562 24.51v5.7486l-22.291 23.343-21.209 19.211-7.9224 7.1876-9.0409 7.5h-1.2932zm18.156-15.898 8.4722-7.5975 30.543-31.052-8.5426-9.2536-19-20.781-17.923-15.719h-2.7201l-16.357 13.961-23.146 24.539-6.2516 7.1478 17.077 19.852 9.321 9.7266 18.69 16.773h1.3651z" fill="#341b3a"/></g></svg>
